<svg xmlns="http://www.w3.org/2000/svg" width="1600" height="1200" viewBox="0 0 1600 1200" role="img" aria-labelledby="title desc">
  <title id="title">Schematische Küchenansicht</title>
  <desc id="desc">Eine eigenständig erstellte, abstrakte Küchenillustration als Platzhalter bis zur Freigabe eines echten Projektfotos.</desc>
  <defs>
    <linearGradient id="wall" x1="0" y1="0" x2="1" y2="1">
      <stop offset="0" stop-color="#2d342f"/>
      <stop offset="1" stop-color="#171b18"/>
    </linearGradient>
    <linearGradient id="floor" x1="0" y1="0" x2="0" y2="1">
      <stop offset="0" stop-color="#242a26"/>
      <stop offset="1" stop-color="#111411"/>
    </linearGradient>
    <linearGradient id="cabinet" x1="0" y1="0" x2="1" y2="1">
      <stop offset="0" stop-color="#ddd7cc"/>
      <stop offset="1" stop-color="#aaa397"/>
    </linearGradient>
    <filter id="shadow" x="-20%" y="-20%" width="140%" height="160%">
      <feDropShadow dx="0" dy="26" stdDeviation="26" flood-color="#000" flood-opacity=".32"/>
    </filter>
  </defs>
  <rect width="1600" height="1200" fill="url(#wall)"/>
  <path d="M0 865 800 690l800 175v335H0Z" fill="url(#floor)"/>
  <g opacity=".12" stroke="#efe9dc" stroke-width="2">
    <path d="M0 170h1600M0 340h1600M0 510h1600M0 680h1600"/>
    <path d="M175 0v845M350 0v807M525 0v769M700 0v731M875 0v731M1050 0v769M1225 0v807M1400 0v845"/>
  </g>
  <g filter="url(#shadow)">
    <path d="M170 630 802 493l628 137-628 143Z" fill="#5f3b2d"/>
    <path d="M170 630 802 767v248L170 866Z" fill="#bbb4a8"/>
    <path d="M802 767 1430 630v236l-628 149Z" fill="#999286"/>
    <path d="m193 654 586 127v198L193 846Z" fill="url(#cabinet)"/>
    <path d="m825 781 582-127v192L825 981Z" fill="#b5aea2"/>
    <g fill="none" stroke="#615c54" stroke-width="5">
      <path d="m387 696v194M584 738v197M1045 733v196M1238 691v193"/>
    </g>
    <g fill="#4f4b45">
      <rect x="274" y="757" width="72" height="9" rx="4" transform="rotate(13 274 757)"/>
      <rect x="470" y="799" width="72" height="9" rx="4" transform="rotate(13 470 799)"/>
      <rect x="1077" y="784" width="72" height="9" rx="4" transform="rotate(-13 1077 784)"/>
      <rect x="1268" y="741" width="72" height="9" rx="4" transform="rotate(-13 1268 741)"/>
    </g>
  </g>
  <g filter="url(#shadow)">
    <path d="M195 222 785 96v327L195 552Z" fill="#c6bfb3"/>
    <path d="m816 96 589 126v330L816 423Z" fill="#aaa397"/>
    <g fill="none" stroke="#625d55" stroke-width="5">
      <path d="M392 180v329M589 138v328M1012 138v328M1209 180v329"/>
    </g>
    <g fill="#4f4b45">
      <rect x="274" y="372" width="72" height="9" rx="4" transform="rotate(-12 274 372)"/>
      <rect x="471" y="329" width="72" height="9" rx="4" transform="rotate(-12 471 329)"/>
      <rect x="1074" y="331" width="72" height="9" rx="4" transform="rotate(12 1074 331)"/>
      <rect x="1270" y="372" width="72" height="9" rx="4" transform="rotate(12 1270 372)"/>
    </g>
  </g>
  <g>
    <ellipse cx="800" cy="560" rx="156" ry="38" fill="#161a17"/>
    <ellipse cx="800" cy="553" rx="125" ry="24" fill="#80786d"/>
    <path d="M795 551v-91c0-42 58-46 58-8" fill="none" stroke="#c68b63" stroke-width="12" stroke-linecap="round"/>
  </g>
  <g opacity=".88">
    <circle cx="145" cy="122" r="8" fill="#d19a6d"/>
    <path d="M175 122h265" stroke="#d19a6d" stroke-width="4"/>
    <path d="M1160 108h260" stroke="#efe9dc" stroke-width="3" opacity=".5"/>
    <circle cx="1450" cy="108" r="7" fill="#efe9dc" opacity=".5"/>
  </g>
</svg>
